Patient4_TMGait_0pt4_03_right_40_EMG.mot
version=1
nRows=29
nColumns=33
inDegrees=no
endheader
time	1LAddLong	2LGlutMax	3LGlutMed	4LIliopsoas	5LSemiMemb	6LBicFemLong	7LRecFem	8LVastMed	9LVastLat	10LGasMed	11LTibAnt	12lTibPost	13LPeroneusLong	14LSol	15LExtDigLong	16LFlexDigLong	17RAddLong	18RGlutMax	19RGlutMed	20RIliopsoas	21RSemiMemb	22RBicFemLong	23RRecFem	24RVastMed	25RVastLat	26RGasMed	27RTibAnt	28RTibPost	29RPeroneusLong	30RSol	31RExtDigLong	32RFlexDigLong
53.29	0.028381	-0.14145	0.083923	0.003815	-0.10162	0.35629	-0.16419	0.018768	0.33356	0.016174	0.004425	0.032196	-0.23483	0.058289	0.1294	-0.032654	-0.023804	-0.12177	-0.13962	-0.073547	-0.050659	-0.23422	-0.40237	0.10971	0.016479	0.02243	-0.01236	0.000153	-0.14114	-0.33417	-0.002289	-0.015564
53.291	0.036774	-0.17777	0.015869	0	-0.034943	0.33005	-0.091095	0.025787	0.22415	0.016174	0.003815	0.03006	-0.14481	0.080719	0.10284	-0.042114	-0.027008	-0.086365	-0.097198	0.035095	0.18295	-0.28534	-0.40207	0.061493	-0.000305	0.032196	0.015259	-0.003967	-0.32227	-0.26962	-0.000305	-0.012512
53.292	0.034485	-0.19547	-0.041504	0.004578	0.049896	0.24353	-0.021515	0.01358	0.065308	0.004883	-0.010986	0.020599	0.039063	0.10757	0.13596	-0.046844	-0.014954	-0.002136	-0.16022	0.14297	0.1236	-0.22492	-0.41657	0.070953	0.005646	0.044861	-0.006256	-0.023804	0.13565	-0.050964	-0.003662	-0.015259
53.293	0.036774	-0.24033	-0.070038	0.002594	0.068665	0.041809	-0.001221	-0.009613	-0.13184	0.010681	-0.001526	0.028076	-0.1767	0.11185	0.023346	-0.045471	-0.023193	-0.095215	-0.26672	0.075378	0.10269	-0.035858	-0.40161	0.013428	-0.001678	0.042419	-0.049591	-0.073853	0.61371	0.003662	0.002136	-0.015564
53.294	0.025177	-0.25864	-0.046844	0.000763	0.066681	-0.14984	0.080566	-0.034637	-0.29129	-0.005188	0.000763	0.02533	-0.10117	0.13748	-0.069733	-0.020447	0.004883	-0.008087	-0.53696	0.001831	0.07019	0.041809	-0.37277	-0.010681	-0.00412	0.02121	-0.049438	-0.087433	0.69488	-0.049591	0.001526	-0.012207
53.295	0.032349	-0.2919	-0.022583	-0.010986	0.086823	-0.044403	0.15564	-0.049438	-0.36896	-0.023193	0.008392	0.022888	0.03952	0.16937	-0.088654	-0.040436	-0.003662	0.015564	-0.25604	-0.023193	0.043945	0.020905	-0.39536	-0.025482	0.004425	0.02182	-0.050659	0.024414	0.46799	0.099945	-0.002747	-0.005035
53.296	0.031891	-0.23666	-0.005951	0.006256	0.047302	0.035706	0.16861	-0.023956	-0.22247	-0.034027	0.00473	0.012665	0.028534	0.18173	-0.061035	-0.049896	0.00946	0.023499	-0.2475	0.060577	0.027313	0.044556	-0.37781	-0.030975	-0.015411	0.00946	0.027008	0.11566	0.22461	-0.12848	-0.002441	-0.018616
53.297	0.02243	-0.1709	0.054474	0.026855	0.072937	-0.21973	0.1857	-0.007782	-0.07019	-0.021362	0.014191	0.011292	-0.24262	0.18692	-0.036316	-0.055389	0.016022	-0.061798	0.44281	0.040741	0.11276	0.010986	-0.35263	-0.033722	-0.022888	-0.02182	0.06546	0.077667	0.11581	-0.074158	-0.001678	-0.01358
53.298	0.06485	-0.05661	0.00351	0.023956	0.10361	-0.4863	0.1564	0.007324	-0.009918	-0.035553	0.010223	0.007629	-0.008392	0.17288	-0.044098	-0.066833	0.043793	0.024109	0.2565	0.051575	0.075836	-0.001068	-0.35233	-0.077209	-0.026703	-0.029144	0.018616	0.037079	0.12116	0.11292	-0.001526	-0.012665
53.299	0.026703	-0.065002	0.045624	0.002289	0.084229	-0.35019	0.11566	0.015869	-0.016022	-0.039978	0.006866	0.003815	-0.061188	0.22018	-0.018921	-0.064087	0.024719	-0.011749	0.053864	-0.015869	-0.004272	-0.023499	-0.35889	-0.049286	-0.014343	-0.036469	-0.00351	0.006866	0.040741	0.011292	-0.001984	-0.006866
53.3	0.031738	-0.059052	-0.015259	0.007935	-0.015411	-0.1474	-0.020752	0.019531	0.00824	-0.041809	-0.007629	0.00412	-0.066528	0.18692	-0.013123	-0.076904	0.002899	0.003662	-0.19318	-0.050049	-0.13062	0.036163	-0.44449	0.003204	-0.002289	-0.036316	0.018616	-0.005341	-0.055847	-0.2214	-0.003662	-0.014648
53.301	0.000763	-0.031128	-0.059052	-0.004883	-0.045013	0.060577	-0.072479	0.02594	0.028839	-0.054626	-0.009308	-0.009003	0.065308	0.19379	-0.010376	-0.072479	0.01297	-0.015869	-0.2565	-0.008392	-0.036774	0.050354	-0.40329	0.005646	-0.005798	-0.045319	0.047302	-0.002441	-0.044403	-0.27618	0.001526	-0.016022
53.302	0.028992	-0.048065	-0.021973	0.006866	-0.049896	0.048981	-0.12299	0.022583	0.03418	-0.061188	-0.005035	-0.02243	0.098572	0.16007	-0.004883	-0.08255	0.041046	-0.019684	-0.25497	0.072784	-0.022583	0.028839	-0.3862	-0.062561	-0.02182	-0.03479	0.057373	-0.00824	0.1474	0.019989	-0.002899	-0.012512
53.303	0.013733	-0.047455	0.011749	0.026855	-0.023193	-0.12894	-0.17868	0.004578	0.036621	-0.072937	-0.010681	-0.021973	0.19165	0.1532	0.014343	-0.075989	0.033569	0.043793	-0.21271	0.10757	-0.037994	-0.010071	-0.36484	-0.060425	-0.023041	-0.016327	0.014496	-0.011444	0.2388	0.10956	-0.00351	-0.012207
53.304	0.013428	-0.045166	-0.25711	0.000458	0.006104	-0.31113	-0.14908	-0.001373	0.053253	-0.07843	-0.013885	-0.025635	0.039673	0.19089	0.03479	-0.054474	0.019836	0.033264	-0.063629	0.066833	-0.080566	0.014496	-0.38513	-0.045166	-0.003815	-0.012207	-0.08316	-0.005341	0.10773	0.006104	-0.005646	-0.018921
53.305	0.003357	-0.062103	-0.35431	-0.006409	-0.009308	-0.15671	-0.042419	-0.007172	0.083313	-0.097656	-0.017242	-0.035858	0.040588	0.15869	-0.026245	-0.061798	0.025482	0.048218	-0.12772	0.015106	-0.058289	0.048828	-0.40192	0.01297	-0.00824	-0.004425	-0.032043	-0.005951	-0.06485	-0.059357	0.000153	-0.023651
53.306	0.00412	-0.025177	-0.12283	-0.008545	0.049133	0.050964	-0.028839	0.000153	0.1445	-0.12711	0.005951	-0.040283	0.21362	0.15335	-0.046997	-0.056152	0.009308	0.018768	0.06546	-0.034332	-0.009766	0.086212	-0.37933	0.008087	-0.008392	-0.003357	0.17242	-0.005493	-0.076141	-0.10208	-0.003815	-0.00885
53.307	0.026093	-0.065155	0.13046	0.001984	0.039368	0.18494	-0.087738	0.025635	0.14969	-0.09491	0.045471	-0.047302	-0.095978	0.092621	0.013885	-0.037384	0.0177	0.040894	0.18616	-0.041504	0.046082	0.091858	-0.36941	-0.046844	-0.026093	0	0.11124	-0.003967	0.042572	-0.039063	-0.001068	-0.023193
53.308	0.034027	-0.081787	0.001221	-0.005035	0.10559	0.21133	-0.12817	0.01297	0.21194	-0.07431	0.045776	-0.049744	-0.2887	0.032501	-0.027161	-0.039978	0.036469	-0.037689	-0.067749	-0.039825	0.14908	-0.008392	-0.35492	-0.018005	-0.037842	0.009613	0.064697	-0.00473	0.027008	0.079346	0.003204	-0.023499
53.309	0.034332	-0.078735	-0.024109	0.015717	0.045471	0.14969	-0.20615	0.001373	0.24521	-0.09613	0.01358	-0.059357	-0.34378	0.006409	-0.13275	-0.026703	0.042725	-0.015259	-0.083771	0.001526	0.15778	-0.10712	-0.3714	-0.050507	-0.0354	0.017853	0.071564	-0.002747	-0.23178	0.10757	-0.001678	-0.018463
53.31	0.032196	0.007629	-0.14954	-0.000305	-0.007629	0.13382	-0.21118	0.001373	0.090485	-0.085144	0.001984	-0.049286	-0.31601	-0.10071	-0.17487	-0.014648	0.038147	-0.033417	-0.008698	0.08316	0.072174	-0.14221	-0.41977	-0.040283	-0.023956	0.012054	0.037079	-0.001984	0.081024	0.11154	-0.003815	-0.025024
53.311	0.020599	0.13794	-0.20477	-0.001526	-0.012665	0.080872	-0.2095	-0.010834	-0.14069	-0.065002	-0.010681	-0.047913	-0.24704	-0.12299	-0.04303	-0.01236	0.024872	-0.071106	-0.019684	0.078735	0.033417	-0.14282	-0.43274	0.019836	-0.016327	0.014954	-0.040436	-0.00473	0.000153	0.082397	-0.001526	-0.023804
53.312	0.00824	0.21301	-0.15228	0	0.002441	-0.019226	-0.13229	-0.000153	-0.19272	-0.054321	-0.020905	-0.05188	-0.21851	-0.062256	0.02655	-0.000305	0.029297	-0.041656	-0.043945	0.040588	0.005035	-0.17425	-0.43915	-0.024872	-0.020752	0.007935	0.14053	0.001068	-0.19928	0.021667	-0.000305	-0.011749
53.313	-0.005646	0.25284	-0.08667	0.007324	-0.059509	-0.32242	-0.12375	0.017548	-0.11261	-0.043488	-0.036163	-0.044556	-0.27145	-0.092773	0.02594	0.000763	0.042419	-0.03952	-0.027924	0.03891	-0.024567	-0.14511	-0.45868	-0.034943	-0.020599	0.007324	0.27893	0.000763	-0.33341	-0.017395	-0.002747	-0.021667
53.314	-0.016937	0.23117	0.008392	0.005493	-0.12726	-0.28793	-0.15808	0.018921	-0.077667	-0.034332	-0.031891	-0.04303	-0.30197	-0.13992	0.061188	0.003662	0.038147	-0.030518	-0.047302	0.044861	-0.029907	-0.073242	-0.40863	-0.080414	-0.028534	0.005188	0.42938	0.000305	-0.34134	-0.068359	0.000153	-0.015717
53.315	-0.021515	0.20401	0.065002	0.002747	-0.12558	-0.009003	-0.23148	0.025787	-0.091553	-0.02243	-0.018311	-0.036163	-0.32089	-0.17044	0.066223	0.029602	0.027618	-0.14938	0.029297	-0.041504	-0.056152	-0.00885	-0.42007	-0.079498	-0.02182	0.024261	0.54642	0.003357	-0.58227	-0.10834	-0.005646	-0.007935
53.316	-0.028839	0.21606	0.14099	0.001526	-0.059204	0.11734	-0.34607	0.020294	-0.036469	-0.010681	-0.012665	-0.037537	-0.30182	-0.20111	0.065765	0.023041	0.028839	-0.19058	0.103	-0.17319	-0.083008	-0.081177	-0.43869	-0.081482	-0.007324	0.023499	-0.44083	0.001831	0.8606	-0.068359	-0.001526	-0.012817
53.317	-0.015564	0.27405	0.15015	0.008545	-0.098572	0.13611	-0.38742	0.002136	0.005188	0.027008	-0.034485	-0.029755	-0.25253	-0.20752	0.041962	0.030823	0.033264	-0.17899	0.018616	-0.21347	-0.22858	-0.17349	-0.48874	-0.035858	-0.002441	0.020294	-1.1359	-0.000916	1.0275	-0.008087	0.001526	-0.015106
53.318	0.001984	0.30533	0.075989	0.009308	-0.082245	0.13534	-0.34454	-0.012512	0.008698	0.075989	-0.04303	-0.032196	-0.3894	-0.2243	-0.015564	0.023193	0.010071	-0.21286	-0.033569	-0.11322	-0.26901	-0.15076	-0.44281	0.019226	-0.00412	0.026245	-0.7251	-0.004578	-0.42648	-0.066681	-0.000763	-0.007935
